<?xml version="1.0" encoding="utf-8"?>
<!-- Generator: Adobe Illustrator 25.3.1, SVG Export Plug-In . SVG Version: 6.00 Build 0)  -->
<svg version="1.1" id="Layer_1" xmlns="http://www.w3.org/2000/svg" xmlns:xlink="http://www.w3.org/1999/xlink" x="0px" y="0px"
	 viewBox="0 0 712 216" style="enable-background:new 0 0 712 216;" xml:space="preserve">
<style type="text/css">
	.st0{display:none;}
	.st1{display:inline;stroke:#000000;stroke-miterlimit:10;}
	.st2{display:inline;}
	.st3{fill-rule:evenodd;clip-rule:evenodd;fill:#FFFFFF;}
	.st4{fill-rule:evenodd;clip-rule:evenodd;fill:#EC2F46;}
	.st5{fill:none;stroke:#FFFFFF;stroke-width:2;stroke-miterlimit:10;}
	.st6{fill:none;stroke:#EC2F46;stroke-width:2;stroke-miterlimit:10;}
</style>
<g id="Layer_2_1_" class="st0">
	<rect x="-4.8" y="-7.7" class="st1" width="722.5" height="238.7"/>
</g>
<g id="Layer_1_1_" class="st0">
	<g class="st2">
		
			<image style="overflow:visible;enable-background:new    ;" width="356" height="108" xlink:href="1932CF4B.png"  transform="matrix(2 0 0 2 0 0)">
		</image>
	</g>
</g>
<g id="Layer_3">
</g>
<g id="Layer_4">
</g>
<g>
	<g>
		<path class="st3" d="M445,52.4c-0.1,0.6-0.5,1.1-1,1.5c-0.5,0.3-1,0.5-1.5,0.7c-1,0.4-2,0.7-3.1,1.1c-1.1,0.4-2.2,0.8-3.1,1.1
			c-1.2,0.4-2.3,0.8-3.3,1.2c-0.8,0.3-1.5,0.8-2.2,1.3c-0.6,0.6-1.2,1.2-1.6,2c-0.5,0.8-0.7,1.8-0.7,3c0,2.4,0.6,4.2,1.7,5.5
			c1.2,1.2,3.3,1.8,6.5,1.8s5.4-0.6,6.6-1.9s1.7-3,1.7-5.4V52.4L445,52.4L445,52.4z M436.7,26.9c5.6,0,9.8,1.1,12.5,3.3
			c2.6,2.2,4,5,4,8.3V67c0,1.2-0.2,2.4-0.6,3.8s-1.2,2.7-2.4,3.8c-1.2,1.2-2.9,2.1-5,2.9s-4.9,1.2-8.3,1.2s-6.2-0.4-8.3-1.2
			c-2.1-0.8-3.8-1.7-5-2.9c-1.2-1.2-2-2.4-2.4-3.8s-0.6-2.7-0.6-3.8v-4.5c0-2.4,0.6-4.7,1.9-6.6c1.3-2,3-3.4,5.4-4.2
			c1.2-0.4,2.4-0.8,4-1.3c1.5-0.5,2.9-1,4.3-1.5s2.6-0.9,3.6-1.3c1-0.4,1.7-0.6,1.9-0.7c0.2-0.1,0.6-0.3,1-0.5s0.8-0.6,1.2-1
			c0.4-0.5,0.7-1,1-1.5c0.3-0.6,0.4-1.3,0.4-2v-1.8c0-0.6-0.1-1.3-0.4-2c-0.2-0.7-0.7-1.3-1.3-1.9c-0.6-0.6-1.5-1-2.6-1.4
			c-1-0.3-2.4-0.5-4-0.5c-3.2,0-5.4,0.6-6.5,2c-1,1.2-1.6,2.6-1.7,4.2c0,0.3-0.3,0.6-0.6,0.6h-7c-0.4,0-0.6-0.3-0.6-0.6v-1.7
			c0-1.6,0.3-3.1,0.9-4.5s1.6-2.7,3-3.7c1.3-1,3-1.9,5.1-2.5C431.3,27.2,433.8,26.9,436.7,26.9L436.7,26.9z M325,52.4
			c-0.1,0.6-0.5,1.1-1,1.5c-0.5,0.3-1,0.5-1.5,0.7c-1,0.4-2,0.7-3.1,1.1c-1.1,0.4-2.2,0.8-3.1,1.1c-1.2,0.4-2.3,0.8-3.3,1.2
			c-0.8,0.3-1.5,0.8-2.2,1.3c-0.6,0.5-1.1,1.2-1.6,2s-0.7,1.8-0.7,3c0,2.4,0.6,4.2,1.7,5.5c1.2,1.2,3.3,1.8,6.5,1.8s5.4-0.6,6.6-1.9
			s1.7-3,1.7-5.4V52.4L325,52.4L325,52.4z M316.8,26.9c5.6,0,9.8,1.1,12.5,3.3c2.6,2.2,4,5,4,8.3V67c0,1.2-0.2,2.4-0.6,3.8
			s-1.2,2.7-2.4,3.8c-1.2,1.2-2.9,2.1-5,2.9s-4.9,1.2-8.3,1.2s-6.2-0.4-8.3-1.2c-2.1-0.8-3.8-1.7-5-2.9c-1.2-1.2-2-2.4-2.4-3.8
			s-0.6-2.7-0.6-3.8v-4.5c0-2.4,0.6-4.7,1.9-6.6c1.3-2,3-3.4,5.4-4.2c1.2-0.4,2.4-0.8,4-1.3c1.5-0.5,2.9-1,4.3-1.5s2.6-0.9,3.6-1.3
			c1-0.4,1.7-0.6,1.9-0.7c0.2-0.1,0.6-0.3,1-0.5s0.8-0.6,1.2-1c0.4-0.5,0.7-1,1-1.5c0.3-0.6,0.4-1.3,0.4-2v-1.8c0-0.6-0.1-1.3-0.4-2
			c-0.2-0.7-0.7-1.3-1.3-1.9c-0.6-0.6-1.5-1-2.6-1.4c-1-0.3-2.4-0.5-4-0.5c-3.2,0-5.4,0.6-6.5,2c-1,1.2-1.6,2.6-1.7,4.2
			c0,0.3-0.3,0.6-0.6,0.6h-7c-0.4,0-0.6-0.3-0.6-0.6v-1.7c0-1.6,0.3-3.1,0.9-4.5s1.6-2.7,3-3.7c1.3-1,3-1.9,5.1-2.5
			C311.4,27.2,313.9,26.9,316.8,26.9L316.8,26.9z M411.9,26.9h4.7c0.4,0,0.7,0.4,0.6,0.8l-1.6,6.1c-0.1,0.3-0.3,0.5-0.6,0.5h-3.3
			c-1.7,0-3.1,0.2-4.2,0.7c-1,0.5-1.9,1-2.5,1.6c-0.5,0.5-0.9,1.2-1.1,1.9c-0.2,0.6-0.2,1.3-0.2,1.9v37.8c0,0.3-0.3,0.6-0.6,0.6h-7
			c-0.4,0-0.6-0.3-0.6-0.6V38.8c0-0.7,0.1-1.7,0.4-3.1c0.2-1.3,0.9-2.6,2-4c1.1-1.3,2.7-2.4,4.9-3.4C404.9,27.3,408,26.9,411.9,26.9
			z M388.3,65.2V67c0,0.8-0.1,1.8-0.4,3.1c-0.2,1.3-0.9,2.6-2,3.9s-2.7,2.4-4.9,3.4c-2.2,0.9-5.2,1.4-9.1,1.4s-6.9-0.5-9.1-1.4
			s-3.8-2-4.9-3.4c-1.1-1.3-1.8-2.6-2-4c-0.2-1.3-0.4-2.3-0.4-3.1V27.5c0-0.3,0.3-0.6,0.6-0.6h6.9c0.4,0,0.6,0.3,0.6,0.6v36.9
			c0,1.2,0.2,2.1,0.3,2.8c0.2,0.7,0.5,1.4,1,2s1.3,1.2,2.4,1.6c1,0.4,2.5,0.6,4.3,0.6c1.9,0,3.4-0.2,4.5-0.6s1.9-0.9,2.5-1.5
			s1-1.2,1.2-1.9c0.2-0.7,0.4-1.3,0.4-3V27.5c0-0.4,0.3-0.6,0.6-0.6h6.9c0.4,0,0.6,0.3,0.6,0.6V65.2L388.3,65.2L388.3,65.2z
			 M340.8,8.2h6.9c0.4,0,0.6,0.3,0.6,0.6v69.3c0,0.4-0.3,0.6-0.6,0.6h-6.9c-0.4,0-0.6-0.3-0.6-0.6V8.8
			C340.1,8.5,340.4,8.2,340.8,8.2z"/>
		<g transform="translate(71.026 .211)">
			<path class="st4" d="M395.8,78.1c-1.2,0-1.8-0.6-1.8-1.8V9.7c0-1.2,0.6-1.8,1.8-1.8h4.2c1.2,0,1.8,0.6,1.8,1.8v66.6
				c0,1.2-0.6,1.8-1.8,1.8H395.8L395.8,78.1z"/>
		</g>
		<path class="st4" d="M520.2,49.4c0-7.8-2.9-11.3-9.5-11.3c-6.6,0-9.5,3.5-9.5,11.3v27.3c0,1.2-0.6,1.8-1.8,1.8h-4.2
			c-1.2,0-1.8-0.6-1.8-1.8V48.5c0-11.1,6-17.1,17.2-17.1c11.1,0,17.1,6,17.1,17.1v28.1c0,1.2-0.6,1.8-1.8,1.8H522
			c-1.2,0-1.8-0.6-1.8-1.8V49.4L520.2,49.4z M561,59.6v-10c0-7.9-3.1-11.6-9.8-11.6s-9.7,3.7-9.7,11.6v10c0,8.1,3.1,11.7,9.7,11.7
			C557.7,71.3,561,67.4,561,59.6z M568.7,77.9c0,10.3-6.6,16.4-17.4,16.4c-6.1,0-11.1-1.7-15-5.1c-0.8-0.7-0.9-1.6-0.3-2.5l1.8-2.5
			c0.6-1,1.5-1.1,2.4-0.3c3.1,2.5,6.6,3.7,10.7,3.7c6.7,0,10.2-3.6,10.2-10.3v-4h-0.2c-2.3,3.1-5.9,4.6-10.8,4.6
			c-10.5,0-16.2-6.1-16.2-17.5V48.9c0-11.4,6-17.5,17.4-17.5s17.5,6.1,17.5,17.5v29H568.7z M608.3,62.6c0,11-5.8,16.9-16.9,16.9
			c-11,0-16.9-5.8-16.9-16.9V34.3c0-1.2,0.6-1.8,1.8-1.8h4.2c1.2,0,1.8,0.6,1.8,1.8V62c0,7.5,2.9,10.8,9.3,10.8s9.3-3.3,9.3-10.8
			V34.3c0-1.2,0.6-1.8,1.8-1.8h4c1.2,0,1.8,0.6,1.8,1.8v28.3H608.3z M640.2,60.7v-3.6h-9.1c-6.2,0-9.7,2.6-9.7,7.7
			c0,5,3,7.5,8.9,7.5C636.9,72.3,640.2,68.4,640.2,60.7 M647.9,48.9v12.6c0,11.4-6.1,17.5-17.6,17.5c-10.7,0-16.6-5.1-16.6-14.3
			c0-8.9,5.8-14,16.5-14h10v-1.1c0-8.4-3.4-12-10.6-12c-3.3,0-6.4,1.2-9.2,3.5c-0.9,0.8-1.8,0.8-2.5-0.2l-1.9-2.7
			c-0.6-0.9-0.6-1.8,0.3-2.5c4-3.2,8.6-4.8,14-4.8C641.8,30.9,647.9,37,647.9,48.9 M486.4,24.8c-0.4,0.6-1.2,1-1.9,1h-3.8
			c-1.2,0-1.7-0.8-1-1.9l6.9-11.2c0.5-0.6,1-1,1.9-1h4.8c1.4,0,1.8,0.8,0.9,1.9L486.4,24.8L486.4,24.8z M481.1,78.3
			c-1.2,0-1.8-0.6-1.8-1.8V34.2c0-1.2,0.6-1.8,1.8-1.8h4.2c1.2,0,1.8,0.6,1.8,1.8v42.3c0,1.2-0.6,1.8-1.8,1.8H481.1L481.1,78.3z"/>
	</g>
	<path class="st3" d="M209.3,52.4c-0.1,0.6-0.5,1.1-1,1.5c-0.5,0.3-1,0.5-1.5,0.7c-1,0.4-2,0.7-3.1,1.1c-1.1,0.4-2.2,0.8-3.1,1.1
		c-1.2,0.4-2.3,0.8-3.3,1.2c-0.8,0.3-1.5,0.8-2.2,1.3c-0.6,0.6-1.2,1.2-1.6,2c-0.5,0.8-0.7,1.8-0.7,3c0,2.4,0.6,4.2,1.7,5.5
		c1.2,1.2,3.3,1.8,6.5,1.8s5.4-0.6,6.6-1.9c1.2-1.3,1.7-3,1.7-5.4L209.3,52.4L209.3,52.4L209.3,52.4z M201.1,26.9
		c5.6,0,9.8,1.1,12.5,3.3c2.6,2.2,4,5,4,8.3V67c0,1.2-0.2,2.4-0.6,3.8c-0.4,1.4-1.2,2.7-2.4,3.8c-1.2,1.2-2.9,2.1-5,2.9
		s-4.9,1.2-8.3,1.2c-3.4,0-6.2-0.4-8.3-1.2c-2.1-0.8-3.8-1.7-5-2.9c-1.2-1.2-2-2.4-2.4-3.8S185,68.1,185,67v-4.5
		c0-2.4,0.6-4.7,1.9-6.6c1.3-2,3-3.4,5.4-4.2c1.2-0.4,2.4-0.8,4-1.3c1.5-0.5,2.9-1,4.3-1.5c1.4-0.5,2.6-0.9,3.6-1.3
		c1-0.4,1.7-0.6,1.9-0.7c0.2-0.1,0.6-0.3,1-0.5s0.8-0.6,1.2-1c0.4-0.5,0.7-1,1-1.5c0.3-0.6,0.4-1.3,0.4-2v-1.8c0-0.6-0.1-1.3-0.4-2
		c-0.2-0.7-0.7-1.3-1.3-1.9c-0.6-0.6-1.5-1-2.6-1.4c-1-0.3-2.4-0.5-4-0.5c-3.2,0-5.4,0.6-6.5,2c-1,1.2-1.6,2.6-1.7,4.2
		c0,0.3-0.3,0.6-0.6,0.6h-7c-0.4,0-0.6-0.3-0.6-0.6v-1.7c0-1.6,0.3-3.1,0.9-4.5c0.6-1.4,1.6-2.7,3-3.7c1.3-1,3-1.9,5.1-2.5
		C195.7,27.2,198.1,26.9,201.1,26.9L201.1,26.9z M89.4,52.4c-0.1,0.6-0.5,1.1-1,1.5c-0.5,0.3-1,0.5-1.5,0.7c-1,0.4-2,0.7-3.1,1.1
		c-1.1,0.4-2.2,0.8-3.1,1.1c-1.2,0.4-2.3,0.8-3.3,1.2c-0.8,0.3-1.5,0.8-2.2,1.3c-0.6,0.5-1.1,1.2-1.6,2s-0.7,1.8-0.7,3
		c0,2.4,0.6,4.2,1.7,5.5c1.2,1.2,3.3,1.8,6.5,1.8s5.4-0.6,6.6-1.9s1.7-3,1.7-5.4V52.4L89.4,52.4L89.4,52.4z M81.1,26.9
		c5.6,0,9.8,1.1,12.5,3.3c2.6,2.2,4,5,4,8.3V67c0,1.2-0.2,2.4-0.6,3.8s-1.2,2.7-2.4,3.8c-1.2,1.2-2.9,2.1-5,2.9s-4.9,1.2-8.3,1.2
		s-6.2-0.4-8.3-1.2c-2.1-0.8-3.8-1.7-5-2.9c-1.2-1.2-2-2.4-2.4-3.8S65,68.1,65,67v-4.5c0-2.4,0.6-4.7,1.9-6.6c1.3-2,3-3.4,5.4-4.2
		c1.2-0.4,2.4-0.8,4-1.3c1.5-0.5,2.9-1,4.3-1.5s2.6-0.9,3.6-1.3c1-0.4,1.7-0.6,1.9-0.7c0.2-0.1,0.6-0.3,1-0.5s0.8-0.6,1.2-1
		c0.4-0.5,0.7-1,1-1.5c0.3-0.6,0.4-1.3,0.4-2v-1.8c0-0.6-0.1-1.3-0.4-2c-0.2-0.7-0.7-1.3-1.3-1.9c-0.6-0.6-1.5-1-2.6-1.4
		c-1-0.3-2.4-0.5-4-0.5c-3.2,0-5.4,0.6-6.5,2c-1,1.2-1.6,2.6-1.7,4.2c0,0.3-0.3,0.6-0.6,0.6h-7c-0.4,0-0.6-0.3-0.6-0.6v-1.7
		c0-1.6,0.3-3.1,0.9-4.5s1.6-2.7,3-3.7c1.3-1,3-1.9,5.1-2.5C75.7,27.2,78.2,26.9,81.1,26.9L81.1,26.9z M176.3,26.9h4.7
		c0.4,0,0.7,0.4,0.6,0.8l-1.6,6.1c-0.1,0.3-0.3,0.5-0.6,0.5h-3.3c-1.7,0-3.1,0.2-4.2,0.7c-1,0.5-1.9,1-2.5,1.6
		c-0.5,0.5-0.9,1.2-1.1,1.9c-0.2,0.6-0.2,1.3-0.2,1.9v37.8c0,0.3-0.3,0.6-0.6,0.6h-7c-0.4,0-0.6-0.3-0.6-0.6V38.7
		c0-0.7,0.1-1.7,0.4-3.1c0.2-1.3,0.9-2.6,2-4c1.1-1.3,2.7-2.4,4.9-3.4C169.3,27.3,172.4,26.9,176.3,26.9z M152.7,65.2v1.7
		c0,0.8-0.1,1.8-0.4,3.1c-0.2,1.3-0.9,2.6-2,3.9s-2.7,2.4-4.9,3.4c-2.2,0.9-5.2,1.4-9.1,1.4c-3.9,0-6.9-0.5-9.1-1.4
		c-2.2-0.9-3.8-2-4.9-3.4c-1.1-1.3-1.8-2.6-2-4c-0.2-1.3-0.4-2.3-0.4-3.1V27.5c0-0.3,0.3-0.6,0.6-0.6h6.9c0.4,0,0.6,0.3,0.6,0.6
		v36.9c0,1.2,0.2,2.1,0.3,2.8c0.2,0.7,0.5,1.4,1,2s1.3,1.2,2.4,1.6c1,0.4,2.5,0.6,4.3,0.6c1.9,0,3.4-0.2,4.5-0.6s1.9-0.9,2.5-1.5
		s1-1.2,1.2-1.9c0.2-0.7,0.4-1.3,0.4-3V27.5c0-0.4,0.3-0.6,0.6-0.6h6.9c0.4,0,0.6,0.3,0.6,0.6V65.2L152.7,65.2L152.7,65.2z
		 M105.1,8.2h6.9c0.4,0,0.6,0.3,0.6,0.6v69.3c0,0.4-0.3,0.6-0.6,0.6h-6.9c-0.4,0-0.6-0.3-0.6-0.6V8.8C104.5,8.5,104.8,8.2,105.1,8.2
		z"/>
	<path class="st5" d="M48.4,157.1h-8.6c-17.1,0-31.1-14-31.1-31.1V79.9c0-17.1,14-31.1,31.1-31.1h26.5"/>
	<path class="st6" d="M650.2,48.8h22c17.1,0,31.1,14,31.1,31.1V126c0,17.1-14,31.1-31.1,31.1h-8.1"/>
	<rect x="244.3" y="32" class="st3" width="8" height="40"/>
	<rect x="228.2" y="48" class="st3" width="40" height="8"/>
	<rect x="604.2" y="121.8" class="st3" width="18.1" height="70.1"/>
	<rect x="578.1" y="147.9" class="st3" width="70.1" height="18.1"/>
	<path class="st3" d="M518.1,105.5c-26.6,0-48.2,22.9-48.2,51.2s21.6,51.1,48.2,51.1c26.6,0,48.2-22.9,48.2-51.1
		S544.7,105.5,518.1,105.5z M518.1,189.5c-14,0-25.4-14.7-25.4-32.8s11.4-32.8,25.4-32.8s25.4,14.7,25.4,32.8
		S532.1,189.5,518.1,189.5z"/>
	<path class="st3" d="M209.4,105.5c-26.6,0-48.2,22.9-48.2,51.2s21.6,51.1,48.2,51.1s48.2-22.9,48.2-51.1S236,105.5,209.4,105.5z
		 M209.4,189.5c-14,0-25.4-14.7-25.4-32.8s11.4-32.8,25.4-32.8s25.4,14.7,25.4,32.8C234.8,174.8,223.4,189.5,209.4,189.5z"/>
	<path class="st3" d="M133,171.9h23.5c-6.1,20.8-24.4,35.9-46,35.9c-26.6,0-48.2-22.9-48.2-51.1s21.6-51.2,48.2-51.2
		c21.8,0,40.2,15.4,46.2,36.5h-23.5c-4.2-10.8-12.8-18.1-22.7-18.1c-14,0-25.4,14.7-25.4,32.8s11.4,32.8,25.4,32.8
		C120.3,189.5,128.8,182.4,133,171.9z"/>
	<polygon class="st3" points="376.1,105.9 376.1,207.8 354.2,207.8 354.2,144 328.5,207.8 321.2,207.8 321.2,207.7 313.9,207.7 
		288.3,143.9 288.3,207.7 266.3,207.7 266.3,105.8 292.4,105.8 321.2,174.2 321.2,174.3 350.1,105.9 	"/>
	<path class="st3" d="M447.4,154.9c8.9-3.9,15.2-12.9,15.2-23.3c0-14-11.4-25.4-25.4-25.4h-48.5v101.6h51.1
		c14.8,0,26.8-12.1,26.8-27C466.6,168.6,458.5,158.2,447.4,154.9z M410.7,125.3h20.5l0,0c5.6,0.2,10.1,5.3,10.1,11.6
		c0,6.2-4.5,11.4-10.1,11.5l0,0h-20.5V125.3z M439.8,187.8c-1.8,1.3-3.8,2.1-6.1,2.2l0,0h-23v-26.4h23l0,0c2.2,0.1,4.3,0.9,6.1,2.2
		c3.2,2.4,5.2,6.4,5.2,11C445,181.4,442.9,185.5,439.8,187.8z"/>
</g>
</svg>
