<?xml version="1.0" encoding="utf-8"?>
<!-- Generator: Adobe Illustrator 25.3.1, SVG Export Plug-In . SVG Version: 6.00 Build 0)  -->
<svg version="1.1" id="Layer_1" xmlns="http://www.w3.org/2000/svg" xmlns:xlink="http://www.w3.org/1999/xlink" x="0px" y="0px"
	 viewBox="0 0 240 73" style="enable-background:new 0 0 240 73;" xml:space="preserve">
<style type="text/css">
	.st0{fill-rule:evenodd;clip-rule:evenodd;fill:#FFFFFF;}
	.st1{fill-rule:evenodd;clip-rule:evenodd;fill:#EC2F46;}
	.st2{fill:none;stroke:#FFFFFF;stroke-width:2;stroke-miterlimit:10;}
	.st3{fill:none;stroke:#EC2F46;stroke-width:2;stroke-miterlimit:10;}
</style>
<g>
	<g>
		<path class="st0" d="M150.4,17.5c0,0.2-0.2,0.4-0.3,0.5c-0.2,0.1-0.3,0.2-0.5,0.2c-0.3,0.1-0.7,0.2-1.1,0.4
			c-0.4,0.1-0.8,0.3-1.1,0.4c-0.4,0.1-0.8,0.3-1.1,0.4c-0.3,0.1-0.5,0.3-0.8,0.4c-0.2,0.2-0.4,0.4-0.5,0.7c-0.2,0.3-0.2,0.6-0.2,1
			c0,0.8,0.2,1.4,0.6,1.9c0.4,0.4,1.1,0.6,2.2,0.6c1.1,0,1.8-0.2,2.3-0.6c0.4-0.4,0.6-1,0.6-1.8V17.5L150.4,17.5L150.4,17.5z
			 M147.5,8.8c1.9,0,3.3,0.4,4.3,1.1c0.9,0.8,1.4,1.7,1.4,2.8v9.7c0,0.4-0.1,0.8-0.2,1.3s-0.4,0.9-0.8,1.3c-0.4,0.4-1,0.7-1.7,1
			c-0.7,0.3-1.7,0.4-2.8,0.4c-1.2,0-2.1-0.1-2.8-0.4c-0.7-0.3-1.3-0.6-1.7-1c-0.4-0.4-0.7-0.8-0.8-1.3s-0.2-0.9-0.2-1.3V21
			c0-0.8,0.2-1.6,0.6-2.3c0.4-0.7,1-1.2,1.8-1.4c0.4-0.1,0.8-0.3,1.4-0.4c0.5-0.2,1-0.3,1.5-0.5c0.5-0.2,0.9-0.3,1.2-0.4
			s0.6-0.2,0.6-0.2c0.1,0,0.2-0.1,0.3-0.2s0.3-0.2,0.4-0.3c0.1-0.2,0.2-0.3,0.3-0.5c0.1-0.2,0.1-0.4,0.1-0.7v-0.6
			c0-0.2,0-0.4-0.1-0.7c-0.1-0.2-0.2-0.4-0.4-0.6c-0.2-0.2-0.5-0.3-0.9-0.5c-0.3-0.1-0.8-0.2-1.4-0.2c-1.1,0-1.8,0.2-2.2,0.7
			c-0.3,0.4-0.5,0.9-0.6,1.4c0,0.1-0.1,0.2-0.2,0.2h-2.4c-0.1,0-0.2-0.1-0.2-0.2v-0.6c0-0.5,0.1-1.1,0.3-1.5c0.2-0.5,0.5-0.9,1-1.3
			c0.4-0.3,1-0.6,1.7-0.9C145.7,8.9,146.5,8.8,147.5,8.8L147.5,8.8z M109.4,17.5c0,0.2-0.2,0.4-0.3,0.5c-0.2,0.1-0.3,0.2-0.5,0.2
			c-0.3,0.1-0.7,0.2-1.1,0.4c-0.4,0.1-0.8,0.3-1.1,0.4c-0.4,0.1-0.8,0.3-1.1,0.4c-0.3,0.1-0.5,0.3-0.8,0.4c-0.2,0.2-0.4,0.4-0.5,0.7
			s-0.2,0.6-0.2,1c0,0.8,0.2,1.4,0.6,1.9c0.4,0.4,1.1,0.6,2.2,0.6s1.8-0.2,2.3-0.6c0.4-0.4,0.6-1,0.6-1.8V17.5L109.4,17.5
			L109.4,17.5z M106.6,8.8c1.9,0,3.3,0.4,4.3,1.1c0.9,0.8,1.4,1.7,1.4,2.8v9.7c0,0.4-0.1,0.8-0.2,1.3s-0.4,0.9-0.8,1.3
			c-0.4,0.4-1,0.7-1.7,1c-0.7,0.3-1.7,0.4-2.8,0.4s-2.1-0.1-2.8-0.4c-0.7-0.3-1.3-0.6-1.7-1c-0.4-0.4-0.7-0.8-0.8-1.3
			s-0.2-0.9-0.2-1.3V21c0-0.8,0.2-1.6,0.6-2.3c0.4-0.7,1-1.2,1.8-1.4c0.4-0.1,0.8-0.3,1.4-0.4c0.5-0.2,1-0.3,1.5-0.5
			c0.5-0.2,0.9-0.3,1.2-0.4c0.3-0.1,0.6-0.2,0.6-0.2c0.1,0,0.2-0.1,0.3-0.2c0.1-0.1,0.3-0.2,0.4-0.3c0.1-0.2,0.2-0.3,0.3-0.5
			c0.1-0.2,0.1-0.4,0.1-0.7v-0.6c0-0.2,0-0.4-0.1-0.7c-0.1-0.2-0.2-0.4-0.4-0.6c-0.2-0.2-0.5-0.3-0.9-0.5c-0.3-0.1-0.8-0.2-1.4-0.2
			c-1.1,0-1.8,0.2-2.2,0.7c-0.3,0.4-0.5,0.9-0.6,1.4c0,0.1-0.1,0.2-0.2,0.2h-2.4c-0.1,0-0.2-0.1-0.2-0.2v-0.6c0-0.5,0.1-1.1,0.3-1.5
			c0.2-0.5,0.5-0.9,1-1.3c0.4-0.3,1-0.6,1.7-0.9C104.8,8.9,105.6,8.8,106.6,8.8L106.6,8.8z M139.1,8.8h1.6c0.1,0,0.2,0.1,0.2,0.3
			l-0.5,2.1c0,0.1-0.1,0.2-0.2,0.2H139c-0.6,0-1.1,0.1-1.4,0.2c-0.3,0.2-0.6,0.3-0.9,0.5c-0.2,0.2-0.3,0.4-0.4,0.6
			c-0.1,0.2-0.1,0.4-0.1,0.6v12.9c0,0.1-0.1,0.2-0.2,0.2h-2.4c-0.1,0-0.2-0.1-0.2-0.2V12.9c0-0.2,0-0.6,0.1-1.1
			c0.1-0.4,0.3-0.9,0.7-1.4c0.4-0.4,0.9-0.8,1.7-1.2C136.7,9,137.7,8.8,139.1,8.8z M131,21.9v0.6c0,0.3,0,0.6-0.1,1.1
			c-0.1,0.4-0.3,0.9-0.7,1.3c-0.4,0.4-0.9,0.8-1.7,1.2c-0.8,0.3-1.8,0.5-3.1,0.5s-2.4-0.2-3.1-0.5c-0.8-0.3-1.3-0.7-1.7-1.2
			c-0.4-0.4-0.6-0.9-0.7-1.4c-0.1-0.4-0.1-0.8-0.1-1.1V9c0-0.1,0.1-0.2,0.2-0.2h2.4c0.1,0,0.2,0.1,0.2,0.2v12.6c0,0.4,0.1,0.7,0.1,1
			c0.1,0.2,0.2,0.5,0.3,0.7c0.2,0.2,0.4,0.4,0.8,0.5c0.3,0.1,0.9,0.2,1.5,0.2c0.6,0,1.2-0.1,1.5-0.2c0.4-0.1,0.6-0.3,0.9-0.5
			c0.2-0.2,0.3-0.4,0.4-0.6c0.1-0.2,0.1-0.4,0.1-1V9c0-0.1,0.1-0.2,0.2-0.2h2.4c0.1,0,0.2,0.1,0.2,0.2V21.9L131,21.9L131,21.9z
			 M114.8,2.5h2.4c0.1,0,0.2,0.1,0.2,0.2v23.6c0,0.1-0.1,0.2-0.2,0.2h-2.4c-0.1,0-0.2-0.1-0.2-0.2V2.7
			C114.6,2.6,114.7,2.5,114.8,2.5z"/>
		<g transform="translate(71.026 .211)">
			<path class="st1" d="M86.8,26.2c-0.4,0-0.6-0.2-0.6-0.6V2.8c0-0.4,0.2-0.6,0.6-0.6h1.4c0.4,0,0.6,0.2,0.6,0.6v22.7
				c0,0.4-0.2,0.6-0.6,0.6H86.8L86.8,26.2z"/>
		</g>
		<path class="st1" d="M176,16.5c0-2.7-1-3.9-3.2-3.9c-2.3,0-3.2,1.2-3.2,3.9v9.3c0,0.4-0.2,0.6-0.6,0.6h-1.4
			c-0.4,0-0.6-0.2-0.6-0.6v-9.6c0-3.8,2-5.8,5.9-5.8c3.8,0,5.8,2,5.8,5.8v9.6c0,0.4-0.2,0.6-0.6,0.6h-1.3c-0.4,0-0.6-0.2-0.6-0.6
			V16.5L176,16.5z M189.9,20v-3.4c0-2.7-1.1-4-3.3-4c-2.3,0-3.3,1.3-3.3,4V20c0,2.8,1.1,4,3.3,4C188.8,24,189.9,22.7,189.9,20z
			 M192.6,26.2c0,3.5-2.3,5.6-5.9,5.6c-2.1,0-3.8-0.6-5.1-1.7c-0.3-0.2-0.3-0.5-0.1-0.9l0.6-0.9c0.2-0.3,0.5-0.4,0.8-0.1
			c1.1,0.9,2.3,1.3,3.7,1.3c2.3,0,3.5-1.2,3.5-3.5v-1.4h-0.1c-0.8,1.1-2,1.6-3.7,1.6c-3.6,0-5.5-2.1-5.5-6v-3.9c0-3.9,2-6,5.9-6
			s6,2.1,6,6L192.6,26.2L192.6,26.2z M206.1,21c0,3.8-2,5.8-5.8,5.8c-3.8,0-5.8-2-5.8-5.8v-9.7c0-0.4,0.2-0.6,0.6-0.6h1.4
			c0.4,0,0.6,0.2,0.6,0.6v9.5c0,2.6,1,3.7,3.2,3.7c2.2,0,3.2-1.1,3.2-3.7v-9.5c0-0.4,0.2-0.6,0.6-0.6h1.4c0.4,0,0.6,0.2,0.6,0.6
			L206.1,21L206.1,21z M217,20.4v-1.2h-3.1c-2.1,0-3.3,0.9-3.3,2.6c0,1.7,1,2.6,3,2.6C215.8,24.3,217,23,217,20.4 M219.6,16.4v4.3
			c0,3.9-2.1,6-6,6c-3.7,0-5.7-1.7-5.7-4.9c0-3,2-4.8,5.6-4.8h3.4v-0.4c0-2.9-1.2-4.1-3.6-4.1c-1.1,0-2.2,0.4-3.1,1.2
			c-0.3,0.3-0.6,0.3-0.9-0.1l-0.6-0.9c-0.2-0.3-0.2-0.6,0.1-0.9c1.4-1.1,2.9-1.6,4.8-1.6C217.5,10.2,219.6,12.3,219.6,16.4
			 M164.5,8.1c-0.1,0.2-0.4,0.3-0.6,0.3h-1.3c-0.4,0-0.6-0.3-0.3-0.6l2.4-3.8c0.2-0.2,0.3-0.3,0.6-0.3h1.6c0.5,0,0.6,0.3,0.3,0.6
			L164.5,8.1L164.5,8.1z M162.7,26.4c-0.4,0-0.6-0.2-0.6-0.6V11.3c0-0.4,0.2-0.6,0.6-0.6h1.4c0.4,0,0.6,0.2,0.6,0.6v14.4
			c0,0.4-0.2,0.6-0.6,0.6H162.7L162.7,26.4z"/>
	</g>
	<path class="st0" d="M69.9,17.5c0,0.2-0.2,0.4-0.3,0.5c-0.2,0.1-0.3,0.2-0.5,0.2c-0.3,0.1-0.7,0.2-1.1,0.4
		c-0.4,0.1-0.8,0.3-1.1,0.4c-0.4,0.1-0.8,0.3-1.1,0.4c-0.3,0.1-0.5,0.3-0.8,0.4c-0.2,0.2-0.4,0.4-0.5,0.7c-0.2,0.3-0.2,0.6-0.2,1
		c0,0.8,0.2,1.4,0.6,1.9c0.4,0.4,1.1,0.6,2.2,0.6s1.8-0.2,2.3-0.6c0.4-0.4,0.6-1,0.6-1.8L69.9,17.5L69.9,17.5L69.9,17.5z M67.1,8.8
		c1.9,0,3.3,0.4,4.3,1.1c0.9,0.8,1.4,1.7,1.4,2.8v9.7c0,0.4-0.1,0.8-0.2,1.3c-0.1,0.5-0.4,0.9-0.8,1.3c-0.4,0.4-1,0.7-1.7,1
		c-0.7,0.3-1.7,0.4-2.8,0.4s-2.1-0.1-2.8-0.4c-0.7-0.3-1.3-0.6-1.7-1c-0.4-0.4-0.7-0.8-0.8-1.3s-0.2-0.9-0.2-1.3V21
		c0-0.8,0.2-1.6,0.6-2.3c0.4-0.7,1-1.2,1.8-1.4c0.4-0.1,0.8-0.3,1.4-0.4c0.5-0.2,1-0.3,1.5-0.5c0.5-0.2,0.9-0.3,1.2-0.4
		c0.3-0.1,0.6-0.2,0.6-0.2c0.1,0,0.2-0.1,0.3-0.2s0.3-0.2,0.4-0.3c0.1-0.2,0.2-0.3,0.3-0.5c0.1-0.2,0.1-0.4,0.1-0.7v-0.6
		c0-0.2,0-0.4-0.1-0.7c-0.1-0.2-0.2-0.4-0.4-0.6c-0.2-0.2-0.5-0.3-0.9-0.5c-0.3-0.1-0.8-0.2-1.4-0.2c-1.1,0-1.8,0.2-2.2,0.7
		c-0.3,0.4-0.5,0.9-0.6,1.4c0,0.1-0.1,0.2-0.2,0.2h-2.4c-0.1,0-0.2-0.1-0.2-0.2v-0.6c0-0.5,0.1-1.1,0.3-1.5c0.2-0.5,0.5-0.9,1-1.3
		c0.4-0.3,1-0.6,1.7-0.9C65.3,8.9,66.1,8.8,67.1,8.8L67.1,8.8z M29,17.5c0,0.2-0.2,0.4-0.3,0.5c-0.2,0.1-0.3,0.2-0.5,0.2
		c-0.3,0.1-0.7,0.2-1.1,0.4c-0.4,0.1-0.8,0.3-1.1,0.4c-0.4,0.1-0.8,0.3-1.1,0.4c-0.3,0.1-0.5,0.3-0.8,0.4c-0.2,0.2-0.4,0.4-0.5,0.7
		c-0.2,0.3-0.2,0.6-0.2,1c0,0.8,0.2,1.4,0.6,1.9c0.4,0.4,1.1,0.6,2.2,0.6c1.1,0,1.8-0.2,2.3-0.6c0.4-0.4,0.6-1,0.6-1.8V17.5L29,17.5
		L29,17.5z M26.2,8.8c1.9,0,3.3,0.4,4.3,1.1c0.9,0.8,1.4,1.7,1.4,2.8v9.7c0,0.4-0.1,0.8-0.2,1.3c-0.1,0.5-0.4,0.9-0.8,1.3
		c-0.4,0.4-1,0.7-1.7,1c-0.7,0.3-1.7,0.4-2.8,0.4s-2.1-0.1-2.8-0.4c-0.7-0.3-1.3-0.6-1.7-1c-0.4-0.4-0.7-0.8-0.8-1.3
		s-0.2-0.9-0.2-1.3V21c0-0.8,0.2-1.6,0.6-2.3c0.4-0.7,1-1.2,1.8-1.4c0.4-0.1,0.8-0.3,1.4-0.4c0.5-0.2,1-0.3,1.5-0.5
		c0.5-0.2,0.9-0.3,1.2-0.4c0.3-0.1,0.6-0.2,0.6-0.2c0.1,0,0.2-0.1,0.3-0.2s0.3-0.2,0.4-0.3c0.1-0.2,0.2-0.3,0.3-0.5
		c0.1-0.2,0.1-0.4,0.1-0.7v-0.6c0-0.2,0-0.4-0.1-0.7c-0.1-0.2-0.2-0.4-0.4-0.6c-0.2-0.2-0.5-0.3-0.9-0.5c-0.3-0.1-0.8-0.2-1.4-0.2
		c-1.1,0-1.8,0.2-2.2,0.7c-0.3,0.4-0.5,0.9-0.6,1.4c0,0.1-0.1,0.2-0.2,0.2h-2.4c-0.1,0-0.2-0.1-0.2-0.2v-0.6c0-0.5,0.1-1.1,0.3-1.5
		c0.2-0.5,0.5-0.9,1-1.3c0.4-0.3,1-0.6,1.7-0.9C24.4,8.9,25.2,8.8,26.2,8.8L26.2,8.8z M58.7,8.8h1.6c0.1,0,0.2,0.1,0.2,0.3L60,11.2
		c0,0.1-0.1,0.2-0.2,0.2h-1.1c-0.6,0-1.1,0.1-1.4,0.2c-0.3,0.2-0.6,0.3-0.9,0.5c-0.2,0.2-0.3,0.4-0.4,0.6c-0.1,0.2-0.1,0.4-0.1,0.6
		v12.9c0,0.1-0.1,0.2-0.2,0.2h-2.4c-0.1,0-0.2-0.1-0.2-0.2V12.9c0-0.2,0-0.6,0.1-1.1c0.1-0.4,0.3-0.9,0.7-1.4
		c0.4-0.4,0.9-0.8,1.7-1.2C56.3,9,57.4,8.8,58.7,8.8z M50.6,21.9v0.6c0,0.3,0,0.6-0.1,1.1c-0.1,0.4-0.3,0.9-0.7,1.3
		c-0.4,0.4-0.9,0.8-1.7,1.2c-0.8,0.3-1.8,0.5-3.1,0.5c-1.3,0-2.4-0.2-3.1-0.5c-0.8-0.3-1.3-0.7-1.7-1.2c-0.4-0.4-0.6-0.9-0.7-1.4
		c-0.1-0.4-0.1-0.8-0.1-1.1V9c0-0.1,0.1-0.2,0.2-0.2H42c0.1,0,0.2,0.1,0.2,0.2v12.6c0,0.4,0.1,0.7,0.1,1c0.1,0.2,0.2,0.5,0.3,0.7
		c0.2,0.2,0.4,0.4,0.8,0.5c0.3,0.1,0.9,0.2,1.5,0.2c0.6,0,1.2-0.1,1.5-0.2c0.4-0.1,0.6-0.3,0.9-0.5c0.2-0.2,0.3-0.4,0.4-0.6
		c0.1-0.2,0.1-0.4,0.1-1V9c0-0.1,0.1-0.2,0.2-0.2h2.4c0.1,0,0.2,0.1,0.2,0.2V21.9L50.6,21.9L50.6,21.9z M34.4,2.5h2.4
		c0.1,0,0.2,0.1,0.2,0.2v23.6c0,0.1-0.1,0.2-0.2,0.2h-2.4c-0.1,0-0.2-0.1-0.2-0.2V2.7C34.2,2.6,34.3,2.5,34.4,2.5z"/>
	<path class="st2" d="M15.1,53.3h-2.9c-5.8,0-10.6-4.8-10.6-10.6V26.9c0-5.8,4.8-10.6,10.6-10.6h9"/>
	<path class="st3" d="M220.4,16.3h7.5c5.8,0,10.6,4.8,10.6,10.6v15.7c0,5.8-4.8,10.6-10.6,10.6h-2.8"/>
	<rect x="81.9" y="10.6" class="st0" width="2.7" height="13.6"/>
	<rect x="76.4" y="16" class="st0" width="13.6" height="2.7"/>
	<rect x="204.7" y="41.2" class="st0" width="6.2" height="23.9"/>
	<rect x="195.8" y="50.1" class="st0" width="23.9" height="6.2"/>
	<path class="st0" d="M175.3,35.7c-9.1,0-16.4,7.8-16.4,17.5s7.4,17.4,16.4,17.4s16.4-7.8,16.4-17.4S184.4,35.7,175.3,35.7z
		 M175.3,64.3c-4.8,0-8.7-5-8.7-11.2s3.9-11.2,8.7-11.2c4.8,0,8.7,5,8.7,11.2S180.1,64.3,175.3,64.3z"/>
	<path class="st0" d="M70,35.7c-9.1,0-16.4,7.8-16.4,17.5S60.9,70.6,70,70.6s16.4-7.8,16.4-17.4S79.1,35.7,70,35.7z M70,64.3
		c-4.8,0-8.7-5-8.7-11.2s3.9-11.2,8.7-11.2s8.7,5,8.7,11.2C78.6,59.3,74.8,64.3,70,64.3z"/>
	<path class="st0" d="M43.9,58.3h8c-2.1,7.1-8.3,12.2-15.7,12.2c-9.1,0-16.4-7.8-16.4-17.4s7.4-17.5,16.4-17.5
		c7.4,0,13.7,5.3,15.8,12.5h-8c-1.4-3.7-4.4-6.2-7.7-6.2c-4.8,0-8.7,5-8.7,11.2s3.9,11.2,8.7,11.2C39.6,64.3,42.5,61.9,43.9,58.3z"
		/>
	<polygon class="st0" points="126.9,35.8 126.9,70.6 119.4,70.6 119.4,48.8 110.6,70.6 108.1,70.6 108.1,70.5 105.6,70.5 96.9,48.8 
		96.9,70.5 89.4,70.5 89.4,35.8 98.3,35.8 108.1,59.1 108.1,59.1 118,35.8 	"/>
	<path class="st0" d="M151.2,52.5c3-1.3,5.2-4.4,5.2-7.9c0-4.8-3.9-8.7-8.7-8.7h-16.5v34.7h17.4c5,0,9.1-4.1,9.1-9.2
		C157.7,57.2,155,53.6,151.2,52.5z M138.7,42.4h7l0,0c1.9,0.1,3.4,1.8,3.4,4c0,2.1-1.5,3.9-3.4,3.9l0,0h-7V42.4z M148.6,63.7
		c-0.6,0.4-1.3,0.7-2.1,0.8l0,0h-7.8v-9h7.8l0,0c0.8,0,1.5,0.3,2.1,0.8c1.1,0.8,1.8,2.2,1.8,3.8C150.4,61.6,149.6,63,148.6,63.7z"/>
</g>
</svg>
